<svg width="303" height="204" viewBox="0 0 303 204" fill="none" xmlns="http://www.w3.org/2000/svg">
<path d="M151.52 192.876L142.202 153.491H151.52V192.876Z" fill="#3F4D86"/>
<path d="M142.202 153.491L142.711 129.352L151.54 153.491H142.202Z" fill="#5B67AF"/>
<path d="M151.52 153.499L142.713 129.355L151.52 106.415V153.499Z" fill="#6673B7"/>
<path d="M110.503 129.528L55.6815 114.128L76.1921 95.5874L110.503 129.528Z" fill="#AA77B3"/>
<path d="M55.6966 114.136L40.6612 102.178L76.196 95.5874L55.6966 114.136Z" fill="#C474B1"/>
<path d="M76.1996 95.5986L113.479 95.7272L110.501 129.53L76.1996 95.5986Z" fill="#9376B6"/>
<path d="M76.207 95.5874L40.6415 102.197L47.4764 69.9222L76.207 95.5874Z" fill="#CF67AA"/>
<path d="M102.797 30.2123L79.109 0L56.0895 35.4575L102.797 30.2123Z" fill="#E55CA1"/>
<path d="M56.0894 35.4611L37.3953 0.487667L79.1058 0.00195312L56.0894 35.4611Z" fill="#F24593"/>
<path d="M37.3958 0.48584L56.0936 35.4649L17.2597 49.0648L37.3958 0.48584Z" fill="#EE2C75"/>
<path d="M47.4639 69.9432L56.0936 35.4575L17.2597 49.0575L47.4639 69.9432Z" fill="#ED477F"/>
<path d="M17.2597 49.0574V83.0574L47.4639 69.9431L17.2597 49.0574Z" fill="#EE4698"/>
<path d="M37.3956 0.48584L17.2595 49.0573L0 32.543L37.3956 0.48584Z" fill="#ED4883"/>
<path d="M89.9414 63.6125L76.1992 95.6027L47.4553 69.9045L89.9414 63.6125Z" fill="#C277B1"/>
<path d="M89.9379 63.615L102.793 30.2134L56.0936 35.4538L89.9379 63.615Z" fill="#D96EAB"/>
<path d="M89.9386 63.6141L47.4611 69.9317L56.0936 35.4497L89.9386 63.6141Z" fill="#E55AA0"/>
<path d="M40.6417 102.198L17.2679 83.0493L47.4698 69.9326L40.6417 102.198Z" fill="#E455A0"/>
<path d="M113.483 95.7442L89.9266 63.6136L76.1499 95.6651L113.483 95.7442Z" fill="#AC7FB6"/>
<path d="M128.272 64.4297L102.789 30.2302L89.9306 63.6214L128.272 64.4297Z" fill="#C482BA"/>
<path d="M89.9231 63.6252L142.469 85.6114L128.269 64.4166L89.9231 63.6252Z" fill="#AE7FB5"/>
<path d="M142.48 85.6133L113.472 95.7329L89.9271 63.6213L142.48 85.6133Z" fill="#9A6FB0"/>
<path d="M142.754 101.089L110.49 129.532L113.469 95.7245L142.754 101.089Z" fill="#776FB2"/>
<path d="M142.748 101.094L142.462 85.6112L113.468 95.7315L142.748 101.094Z" fill="#8A6EAF"/>
<path d="M142.212 153.51L110.488 129.507L142.747 130.149L142.212 153.51Z" fill="#697EBD"/>
<path d="M142.748 130.153V101.089L110.461 129.514L142.748 130.153Z" fill="#626CAF"/>
<path d="M37.3959 133.141L55.7235 114.126L74.9952 153.773L37.3959 133.141Z" fill="#8B81BD"/>
<path d="M110.521 129.454L55.7225 114.136L74.974 153.794L110.521 129.454Z" fill="#7C76B3"/>
<path d="M110.507 129.482L74.9259 153.781L107.094 161.657L110.507 129.482Z" fill="#8A89C5"/>
<path d="M107.1 161.644L142.222 153.505L110.476 129.434L107.1 161.644Z" fill="#7A9ACD"/>
<path d="M129.614 180.397L107.1 161.637L142.211 153.505L129.614 180.397Z" fill="#7CBAE6"/>
<path d="M53.748 185.013L37.3982 133.132L74.9446 153.736L53.748 185.013Z" fill="#90AEDA"/>
<path d="M151.508 106.415L142.446 85.6166L151.508 72.3678V106.415Z" fill="#6A73B9"/>
<path d="M142.746 129.264L142.455 85.6268L151.52 106.395L142.746 129.264Z" fill="#5C66AE"/>
<path d="M139.035 72.857L144.774 82.2092L151.5 72.3713L144.308 65.0856L139.035 72.857Z" fill="#B27FB5"/>
<path d="M151.5 65.0856H144.308L147.664 68.4856L151.5 65.0856Z" fill="#B391AE"/>
<path d="M151.5 72.3713L147.664 68.4856L151.5 65.0856V72.3713Z" fill="#C88AB8"/>
<path d="M134.72 51L140.975 70.0036L143.35 66.5429L137.117 50.0286L134.72 51Z" fill="#C58FA8"/>
<path d="M126.569 26.2285L137.117 50.0285L134.72 50.9999L126.569 26.2285Z" fill="#D3BEC8"/>
<path d="M95.0312 203.481L74.9431 153.736L53.7408 184.999L95.0312 203.481Z" fill="#94C4EB"/>
<path d="M107.108 161.65L74.9317 153.73L95.0207 203.477L107.108 161.65Z" fill="#99B6DF"/>
<path d="M95.0169 203.484L107.108 161.638L129.612 180.397L95.0169 203.484Z" fill="#6DCFFA"/>
<path d="M151.48 192.876L160.798 153.491H151.48V192.876Z" fill="#3F4D86"/>
<path d="M160.798 153.491L160.289 129.352L151.46 153.491H160.798Z" fill="#5B67AF"/>
<path d="M151.48 153.499L160.287 129.355L151.48 106.415V153.499Z" fill="#6673B7"/>
<path d="M192.497 129.528L247.318 114.128L226.808 95.5874L192.497 129.528Z" fill="#AA77B3"/>
<path d="M247.303 114.136L262.339 102.178L226.804 95.5874L247.303 114.136Z" fill="#C474B1"/>
<path d="M226.8 95.5986L189.521 95.7272L192.499 129.53L226.8 95.5986Z" fill="#9376B6"/>
<path d="M226.793 95.5874L262.358 102.197L255.524 69.9222L226.793 95.5874Z" fill="#CF67AA"/>
<path d="M200.203 30.2123L223.891 0L246.911 35.4575L200.203 30.2123Z" fill="#E55CA1"/>
<path d="M246.911 35.4611L265.605 0.487667L223.894 0.00195312L246.911 35.4611Z" fill="#F24593"/>
<path d="M265.605 0.48584L246.907 35.4649L285.741 49.0648L265.605 0.48584Z" fill="#EE2C75"/>
<path d="M255.537 69.9432L246.907 35.4575L285.741 49.0575L255.537 69.9432Z" fill="#ED477F"/>
<path d="M285.741 49.0574V83.0574L255.537 69.9431L285.741 49.0574Z" fill="#EE4698"/>
<path d="M265.604 0.48584L285.741 49.0573L303 32.543L265.604 0.48584Z" fill="#ED4883"/>
<path d="M213.059 63.6125L226.801 95.6027L255.545 69.9045L213.059 63.6125Z" fill="#C277B1"/>
<path d="M213.062 63.615L200.207 30.2134L246.906 35.4538L213.062 63.615Z" fill="#D96EAB"/>
<path d="M213.061 63.6141L255.539 69.9317L246.906 35.4497L213.061 63.6141Z" fill="#E55AA0"/>
<path d="M262.358 102.198L285.732 83.0493L255.53 69.9326L262.358 102.198Z" fill="#E455A0"/>
<path d="M189.517 95.7442L213.073 63.6136L226.85 95.6651L189.517 95.7442Z" fill="#AC7FB6"/>
<path d="M174.728 64.4297L200.211 30.2302L213.069 63.6214L174.728 64.4297Z" fill="#C482BA"/>
<path d="M213.077 63.6252L160.531 85.6114L174.731 64.4166L213.077 63.6252Z" fill="#AE7FB5"/>
<path d="M160.52 85.6133L189.528 95.7329L213.073 63.6213L160.52 85.6133Z" fill="#9A6FB0"/>
<path d="M160.246 101.089L192.51 129.532L189.531 95.7245L160.246 101.089Z" fill="#776FB2"/>
<path d="M160.252 101.094L160.538 85.6112L189.532 95.7315L160.252 101.094Z" fill="#8A6EAF"/>
<path d="M160.788 153.51L192.513 129.507L160.254 130.149L160.788 153.51Z" fill="#697EBD"/>
<path d="M160.252 130.153V101.089L192.539 129.514L160.252 130.153Z" fill="#626CAF"/>
<path d="M265.604 133.141L247.276 114.126L228.005 153.773L265.604 133.141Z" fill="#8B81BD"/>
<path d="M192.479 129.454L247.277 114.136L228.026 153.794L192.479 129.454Z" fill="#7C76B3"/>
<path d="M192.493 129.482L228.074 153.781L195.906 161.657L192.493 129.482Z" fill="#8A89C5"/>
<path d="M195.9 161.644L160.778 153.505L192.524 129.434L195.9 161.644Z" fill="#7A9ACD"/>
<path d="M173.386 180.397L195.9 161.637L160.789 153.505L173.386 180.397Z" fill="#7CBAE6"/>
<path d="M249.252 185.013L265.602 133.132L228.055 153.736L249.252 185.013Z" fill="#90AEDA"/>
<path d="M207.969 203.481L228.057 153.736L249.259 184.999L207.969 203.481Z" fill="#94C4EB"/>
<path d="M195.892 161.65L228.068 153.73L207.979 203.477L195.892 161.65Z" fill="#99B6DF"/>
<path d="M207.983 203.484L195.892 161.638L173.388 180.397L207.983 203.484Z" fill="#6DCFFA"/>
<path d="M151.492 106.415L160.554 85.6166L151.492 72.3678V106.415Z" fill="#6A73B9"/>
<path d="M160.254 129.264L160.545 85.6268L151.48 106.395L160.254 129.264Z" fill="#5C66AE"/>
<path d="M163.965 72.857L158.226 82.2092L151.5 72.3713L158.692 65.0856L163.965 72.857Z" fill="#B27FB5"/>
<path d="M151.5 65.0856H158.692L155.336 68.4856L151.5 65.0856Z" fill="#B391AE"/>
<path d="M151.5 72.3713L155.336 68.4856L151.5 65.0856V72.3713Z" fill="#C88AB8"/>
<path d="M168.28 51L162.025 70.0036L159.65 66.5429L165.883 50.0286L168.28 51Z" fill="#C58FA8"/>
<path d="M176.431 26.2285L165.883 50.0285L168.28 50.9999L176.431 26.2285Z" fill="#D3BEC8"/>
</svg>
