<svg width="1040" height="1404" viewBox="0 0 1040 1404" fill="none" xmlns="http://www.w3.org/2000/svg">
<g filter="url(#filter0_d)">
<path fill-rule="evenodd" clip-rule="evenodd" d="M131.496 109.372C61.3702 169.53 4 221.006 4 223.768C4 226.524 30.4759 253.296 62.8352 283.26L121.67 337.734L121.947 455.958L122.229 574.188L242.895 671.358C309.261 724.801 366.366 771.826 369.802 775.854C374.468 781.331 360.971 799.404 316.244 847.583L256.444 911.986L310.72 1084.65C340.573 1179.62 367.837 1260.54 371.302 1264.47C374.768 1268.4 439.822 1299.54 515.866 1333.66L654.129 1395.72L774.124 1314.74L894.112 1233.77L930.725 1154.52C950.865 1110.94 969.863 1074.44 972.946 1073.41C976.029 1072.38 991.467 1127.26 1007.25 1195.35C1023.03 1263.44 1037.46 1319.16 1039.31 1319.16C1041.15 1319.16 1055.69 1263.45 1071.61 1195.36C1087.53 1127.28 1102.94 1072.37 1105.85 1073.34C1108.77 1074.31 1127.67 1110.81 1147.86 1154.44L1184.57 1233.77L1304.88 1314.88L1425.18 1396L1566.23 1332.89C1643.81 1298.19 1707.78 1269.58 1708.39 1269.31C1709 1269.05 1734.84 1188.44 1765.8 1090.17L1822.1 911.498L1762.53 847.336C1717.97 799.346 1704.53 781.331 1709.2 775.854C1712.63 771.826 1769.74 724.801 1836.11 671.358L1956.77 574.188L1957.05 456.217L1957.33 338.246L2016.16 283.548C2048.52 253.467 2075 226.583 2075 223.804C2075 221.024 2017.63 169.53 1947.5 109.372L1820.01 0H1675.02H1530.02L1432.83 125.143C1307.89 286.004 1208.78 420.211 1152.76 504.402C1112.48 564.936 1092.45 584.588 1092.45 563.564C1092.45 559.335 1100.42 543.305 1110.16 527.94C1124.39 505.473 1126.65 497.729 1121.66 488.407C1116.72 479.173 1124.54 449.168 1160.12 340.761C1199.84 219.764 1210.82 177.009 1193.7 210.029C1181.89 232.814 1128.5 358.234 1113.27 398.987L1097.31 441.683H1039.92H982.524L966.132 398.987C950.029 357.044 880.504 193.751 876.703 188.94C865.677 175.001 876.42 214.228 916.187 333.135C954.371 447.307 962.196 476.599 957.384 487.388C952.547 498.224 954.718 506.039 968.992 529.265C1010.68 597.073 980.106 584.099 933.438 514.178C878.633 432.054 758.832 269.633 646.498 125.143L549.208 0H404.097H258.986L131.496 109.372Z" fill="#171623"/>
<path d="M122.67 337.732L122.669 337.296L122.35 337L63.5146 282.526C47.3428 267.552 32.645 253.378 21.9939 242.608C16.6668 237.222 12.3606 232.695 9.39031 229.349C7.9033 227.674 6.76431 226.309 6.00215 225.289C5.61973 224.776 5.34701 224.37 5.17445 224.067C5.12186 223.974 5.08236 223.898 5.05338 223.837C5.13506 223.711 5.26093 223.539 5.44049 223.316C5.85162 222.805 6.47964 222.105 7.32593 221.217C9.01444 219.446 11.5153 216.987 14.7488 213.913C21.2126 207.769 30.5671 199.203 42.1187 188.838C65.22 168.11 97.0881 140.207 132.147 110.131L259.356 1H404.097H548.719L645.709 125.757C758.038 270.24 877.821 432.639 932.606 514.733C944.291 532.24 954.979 546.198 963.792 556.229C968.198 561.243 972.144 565.286 975.521 568.303C978.878 571.303 981.734 573.347 983.956 574.29C985.061 574.759 986.126 575.008 987.07 574.86C988.097 574.7 988.864 574.086 989.283 573.125C989.671 572.235 989.744 571.093 989.611 569.794C989.477 568.476 989.117 566.891 988.539 565.047C986.233 557.695 980.271 545.704 969.844 528.742C962.702 517.121 958.665 509.471 956.985 503.413C955.333 497.454 955.96 493.03 958.297 487.796L957.384 487.388L958.297 487.795C959.607 484.858 960.001 480.793 959.341 474.682C958.679 468.558 956.943 460.259 953.875 448.772C947.738 425.794 936.226 389.898 917.136 332.818C897.251 273.361 884.632 233.853 878.362 210.956C875.215 199.464 873.703 192.275 873.628 188.847C873.612 188.099 873.668 187.621 873.745 187.345C873.856 187.41 874.018 187.521 874.237 187.711C874.687 188.102 875.246 188.711 875.918 189.56C875.975 189.632 876.12 189.862 876.368 190.322C876.603 190.757 876.901 191.342 877.259 192.072C877.975 193.531 878.921 195.543 880.067 198.043C882.36 203.044 885.448 209.975 889.099 218.293C896.402 234.929 905.95 257.099 915.884 280.431C935.755 327.102 957.155 378.394 965.199 399.345L981.59 442.041L981.837 442.683H982.524H1039.92H1097.31H1098L1098.24 442.033L1114.2 399.337C1129.43 358.6 1182.81 233.222 1194.59 210.489C1196.73 206.367 1198.4 203.479 1199.62 201.787C1199.97 201.291 1200.27 200.93 1200.5 200.679C1200.51 200.858 1200.51 201.069 1200.5 201.313C1200.47 202.161 1200.34 203.322 1200.09 204.814C1199.59 207.791 1198.65 211.977 1197.26 217.39C1191.7 239.039 1179.04 279.946 1159.17 340.449C1141.38 394.648 1130.52 429.28 1124.73 451.522C1121.83 462.639 1120.19 470.702 1119.59 476.584C1118.99 482.434 1119.4 486.295 1120.78 488.878C1121.98 491.128 1122.73 493.238 1122.98 495.469C1123.23 497.699 1122.99 500.109 1122.16 502.965C1120.48 508.721 1116.43 516.163 1109.31 527.405C1104.43 535.113 1099.98 542.992 1096.76 549.483C1095.14 552.727 1093.83 555.638 1092.92 558.015C1092.02 560.342 1091.45 562.298 1091.45 563.564C1091.45 566.242 1091.77 568.407 1092.48 569.96C1093.23 571.573 1094.45 572.586 1096.14 572.699C1097.72 572.805 1099.51 572.115 1101.45 570.89C1103.41 569.648 1105.67 567.768 1108.2 565.281C1118.33 555.347 1133.45 535.218 1153.59 504.956C1209.59 420.797 1308.68 286.614 1433.61 125.757L1530.51 1H1675.02H1819.64L1946.85 110.131C1981.91 140.207 2013.78 168.114 2036.88 188.849C2048.43 199.217 2057.79 207.787 2064.25 213.935C2067.48 217.011 2069.99 219.472 2071.67 221.245C2072.52 222.134 2073.15 222.836 2073.56 223.347C2073.74 223.573 2073.87 223.746 2073.95 223.872C2073.92 223.935 2073.88 224.014 2073.82 224.11C2073.65 224.415 2073.38 224.824 2073 225.339C2072.23 226.365 2071.1 227.736 2069.61 229.419C2066.64 232.78 2062.33 237.327 2057 242.736C2046.35 253.552 2031.66 267.783 2015.48 282.816L1956.65 337.514L1956.33 337.81L1956.33 338.244L1956.05 456.215L1955.77 573.708L1835.48 670.579C1802.29 697.302 1771.42 722.422 1748.42 741.365C1736.91 750.836 1727.38 758.765 1720.5 764.579C1717.06 767.485 1714.28 769.866 1712.26 771.648C1710.26 773.404 1708.92 774.634 1708.44 775.205L1709.2 775.854L1708.44 775.205C1706.88 777.029 1707.04 779.68 1708.37 782.96C1709.72 786.292 1712.42 790.641 1716.6 796.25C1724.99 807.486 1739.52 824.023 1761.8 848.016L1820.97 911.752L1764.85 1089.87C1749.37 1139 1735.17 1183.72 1724.76 1216.19C1719.56 1232.42 1715.31 1245.59 1712.32 1254.72C1710.82 1259.28 1709.64 1262.83 1708.82 1265.25C1708.41 1266.46 1708.08 1267.38 1707.86 1267.99C1707.77 1268.23 1707.7 1268.41 1707.65 1268.55C1702.46 1270.86 1640.43 1298.6 1565.83 1331.98L1425.28 1394.86L1305.44 1314.05L1185.36 1233.09L1148.77 1154.02C1138.67 1132.19 1128.89 1112.15 1121.27 1097.43C1117.46 1090.08 1114.18 1084.04 1111.67 1079.78C1110.41 1077.65 1109.34 1075.95 1108.48 1074.74C1108.05 1074.13 1107.66 1073.63 1107.32 1073.26C1107.22 1073.15 1107.11 1073.04 1107.01 1072.95C1106.94 1072.88 1106.87 1072.82 1106.8 1072.76C1106.64 1072.63 1106.42 1072.48 1106.16 1072.39C1105.66 1072.23 1105.23 1072.42 1104.98 1072.58C1104.73 1072.75 1104.53 1072.98 1104.36 1073.2C1104.02 1073.65 1103.66 1074.3 1103.29 1075.08C1102.54 1076.68 1101.62 1079.05 1100.56 1082.1C1098.45 1088.2 1095.75 1097.12 1092.64 1108.19C1086.43 1130.32 1078.6 1161.08 1070.63 1195.14C1062.68 1229.18 1055.07 1260.12 1049.21 1282.54C1046.29 1293.76 1043.8 1302.84 1041.94 1309.11C1041 1312.24 1040.23 1314.66 1039.63 1316.29C1039.52 1316.61 1039.41 1316.89 1039.31 1317.14C1039.21 1316.89 1039.1 1316.61 1038.99 1316.29C1038.39 1314.66 1037.62 1312.24 1036.7 1309.11C1034.84 1302.83 1032.38 1293.76 1029.47 1282.54C1023.66 1260.11 1016.11 1229.17 1008.22 1195.13C1000.33 1161.07 992.52 1130.31 986.297 1108.19C983.187 1097.13 980.468 1088.22 978.33 1082.12C977.263 1079.08 976.33 1076.71 975.556 1075.13C975.173 1074.34 974.804 1073.69 974.45 1073.24C974.276 1073.02 974.061 1072.79 973.804 1072.63C973.54 1072.47 973.114 1072.3 972.63 1072.46C972.175 1072.61 971.77 1072.99 971.455 1073.33C971.1 1073.71 970.7 1074.21 970.262 1074.82C969.382 1076.04 968.291 1077.74 967.021 1079.88C964.477 1084.15 961.174 1090.19 957.345 1097.55C949.683 1112.26 939.892 1132.3 929.818 1154.1L893.321 1233.09L773.564 1313.91L654.031 1394.58L516.276 1332.75C478.259 1315.69 442.992 1299.38 416.799 1286.84C403.701 1280.57 392.878 1275.25 385.117 1271.25C381.235 1269.25 378.127 1267.59 375.887 1266.3C374.766 1265.66 373.873 1265.12 373.213 1264.68C372.521 1264.23 372.17 1263.94 372.053 1263.81L371.302 1264.47L372.052 1263.81C371.942 1263.68 371.687 1263.26 371.281 1262.41C370.896 1261.61 370.419 1260.51 369.854 1259.13C368.726 1256.37 367.265 1252.53 365.512 1247.73C362.006 1238.12 357.344 1224.67 351.854 1208.38C340.876 1175.8 326.599 1131.83 311.674 1084.35L257.573 912.241L316.977 848.264C339.338 824.176 353.929 807.577 362.347 796.304C366.549 790.675 369.26 786.314 370.618 782.974C371.954 779.687 372.118 777.03 370.563 775.205L370.563 775.205C370.076 774.634 368.742 773.404 366.745 771.648C364.718 769.866 361.94 767.485 358.502 764.579C351.623 758.765 342.085 750.836 330.583 741.365C307.578 722.422 276.707 697.302 243.522 670.579L123.228 573.708L122.947 455.956L122.67 337.732ZM4.99243 223.685C4.99244 223.685 4.99262 223.685 4.99291 223.687L4.99243 223.685ZM1708 1268.39L1707.99 1268.4C1708 1268.39 1708 1268.39 1708 1268.39Z" stroke="#7D7D7D" stroke-width="2"/>
</g>
<defs>
<filter id="filter0_d" x="0" y="0" width="2079" height="1404" filterUnits="userSpaceOnUse" color-interpolation-filters="sRGB">
<feFlood flood-opacity="0" result="BackgroundImageFix"/>
<feColorMatrix in="SourceAlpha" type="matrix" values="0 0 0 0 0 0 0 0 0 0 0 0 0 0 0 0 0 0 127 0"/>
<feOffset dy="4"/>
<feGaussianBlur stdDeviation="2"/>
<feColorMatrix type="matrix" values="0 0 0 0 0 0 0 0 0 0 0 0 0 0 0 0 0 0 0.25 0"/>
<feBlend mode="normal" in2="BackgroundImageFix" result="effect1_dropShadow"/>
<feBlend mode="normal" in="SourceGraphic" in2="effect1_dropShadow" result="shape"/>
</filter>
</defs>
</svg>
