<svg width="820" height="1129" viewBox="0 0 820 1129" fill="none" xmlns="http://www.w3.org/2000/svg">
<g filter="url(#filter0_d)">
<path fill-rule="evenodd" clip-rule="evenodd" d="M-745.56 87.827C-801.904 136.134 -848 177.47 -848 179.688C-848 181.901 -826.727 203.399 -800.727 227.46L-753.455 271.203L-753.232 366.138L-753.005 461.078L-656.054 539.106C-602.73 582.022 -556.847 619.783 -554.087 623.017C-550.338 627.415 -561.182 641.929 -597.119 680.617L-645.167 732.333L-601.558 870.987C-577.572 947.247 -555.665 1012.22 -552.881 1015.38C-550.097 1018.54 -497.827 1043.54 -436.727 1070.94L-325.636 1120.77L-229.224 1055.75L-132.816 990.726L-103.398 927.092C-87.2164 892.093 -71.952 862.782 -69.4749 861.96C-66.9979 861.132 -54.5934 905.197 -41.9149 959.878C-29.2316 1014.55 -17.6404 1059.3 -16.1561 1059.3C-14.6717 1059.3 -2.9906 1014.56 9.79669 959.888C22.5887 905.216 34.9694 861.123 37.3094 861.903C39.6541 862.683 54.8428 891.989 71.0668 927.026L100.56 990.726L197.224 1055.86L293.887 1121L407.219 1070.32C469.548 1042.46 520.947 1019.48 521.439 1019.27C521.93 1019.06 542.688 954.326 567.568 875.418L612.803 731.94L564.939 680.418C529.135 641.881 518.338 627.415 522.086 623.017C524.847 619.783 570.73 582.022 624.054 539.106L721.005 461.078L721.232 366.346L721.454 271.615L768.727 227.692C794.727 203.536 816 181.948 816 179.716C816 177.484 769.904 136.134 713.56 87.827L611.125 0H494.626H378.122L300.028 100.491C199.644 229.664 120.013 337.433 74.9999 405.039C42.637 453.648 26.5454 469.429 26.5454 452.546C26.5454 449.151 32.9462 436.279 40.7698 423.941C52.2098 405.9 54.0203 399.681 50.0163 392.195C46.0454 384.78 52.3279 360.686 80.9185 273.634C112.832 176.472 121.653 142.14 107.897 168.655C98.4094 186.952 55.5094 287.665 43.2705 320.39L30.4454 354.675H-15.6644H-61.779L-74.9492 320.39C-87.8877 286.71 -143.75 155.584 -146.804 151.721C-155.663 140.527 -147.031 172.027 -115.079 267.51C-84.3989 359.191 -78.1117 382.713 -81.9786 391.377C-85.8644 400.078 -84.12 406.354 -72.6516 425.005C-39.1589 479.454 -63.7218 469.036 -101.219 412.889C-145.253 346.943 -241.51 216.517 -331.768 100.491L-409.938 0H-526.531H-643.125L-745.56 87.827Z" fill="#171623"/>
<path d="M-752.456 270.765L-752.455 271.201L-752.232 366.136L-752.007 460.598L-655.427 538.327C-628.763 559.786 -603.958 579.958 -585.474 595.17C-576.232 602.776 -568.567 609.143 -563.04 613.813C-560.276 616.147 -558.044 618.06 -556.413 619.492C-554.813 620.898 -553.729 621.896 -553.326 622.368L-553.326 622.369C-552 623.924 -552.17 626.156 -553.249 628.809C-554.35 631.515 -556.54 635.034 -559.92 639.557C-566.69 648.619 -578.42 661.956 -596.386 681.297L-644.039 732.588L-600.604 870.687C-588.612 908.812 -577.141 944.115 -568.321 970.278C-563.911 983.36 -560.165 994.152 -557.349 1001.87C-555.941 1005.73 -554.768 1008.81 -553.863 1011.02C-553.41 1012.12 -553.028 1013 -552.721 1013.64C-552.567 1013.96 -552.436 1014.22 -552.328 1014.41C-552.275 1014.5 -552.23 1014.58 -552.193 1014.63C-552.175 1014.66 -552.161 1014.68 -552.149 1014.69C-552.144 1014.7 -552.139 1014.71 -552.136 1014.71L-552.133 1014.71L-552.131 1014.72L-552.131 1014.72C-552.056 1014.8 -551.795 1015.02 -551.238 1015.39C-550.713 1015.73 -549.999 1016.17 -549.1 1016.68C-547.304 1017.71 -544.81 1019.04 -541.692 1020.65C-535.458 1023.86 -526.764 1028.13 -516.241 1033.17C-495.197 1043.23 -466.863 1056.33 -436.318 1070.03L-325.734 1119.63L-229.783 1054.92L-133.606 990.053L-104.306 926.672C-96.21 909.162 -88.3416 893.07 -82.1842 881.248C-79.1065 875.338 -76.4504 870.484 -74.4039 867.05C-73.3821 865.335 -72.502 863.957 -71.7903 862.973C-71.4357 862.483 -71.1087 862.07 -70.8156 861.758C-70.5628 861.488 -70.2083 861.15 -69.7918 861.011L-752.456 270.765ZM-752.456 270.765L-752.775 270.469M-752.456 270.765L-752.775 270.469M-752.775 270.469L-800.048 226.726C-813.04 214.703 -824.847 203.323 -833.403 194.678C-837.682 190.353 -841.139 186.721 -843.522 184.038C-844.716 182.695 -845.627 181.604 -846.234 180.791C-846.539 180.382 -846.753 180.064 -846.886 179.83C-846.9 179.804 -846.914 179.78 -846.926 179.758C-846.868 179.676 -846.79 179.573 -846.69 179.449C-846.364 179.045 -845.864 178.487 -845.186 177.775C-843.832 176.357 -841.826 174.385 -839.228 171.917C-834.037 166.985 -826.522 160.108 -817.242 151.785C-798.682 135.142 -773.077 112.736 -744.909 88.5862L-745.56 87.827L-744.909 88.5862L-642.755 1H-526.531H-410.427L-332.557 101.105C-242.304 217.125 -146.065 347.529 -102.05 413.444C-92.6577 427.509 -84.0653 438.724 -76.9772 446.787C-73.4337 450.817 -70.2571 454.07 -67.5368 456.499C-64.8356 458.912 -62.5209 460.571 -60.7045 461.341C-59.8033 461.724 -58.9068 461.939 -58.0963 461.812C-57.2022 461.673 -56.5309 461.134 -56.1685 460.304C-55.8368 459.543 -55.7807 458.586 -55.8889 457.529C-55.999 456.453 -56.2914 455.167 -56.7584 453.679C-58.619 447.75 -63.4203 438.103 -71.7997 424.481C-77.5389 415.147 -80.768 409.027 -82.1093 404.192C-83.423 399.457 -82.9266 395.952 -81.0655 391.785C-79.9913 389.378 -79.6788 386.072 -80.2106 381.153C-80.744 376.22 -82.1418 369.544 -84.6075 360.317C-89.5404 341.858 -98.7925 313.028 -114.131 267.193C-130.108 219.448 -140.245 187.728 -145.281 169.347C-147.811 160.114 -149.018 154.366 -149.077 151.641C-149.086 151.263 -149.07 150.979 -149.044 150.774C-149.005 150.805 -148.961 150.841 -148.914 150.882C-148.566 151.185 -148.125 151.663 -147.588 152.341C-147.588 152.341 -147.585 152.344 -147.579 152.353C-147.573 152.361 -147.566 152.372 -147.556 152.387C-147.536 152.417 -147.51 152.457 -147.479 152.509C-147.417 152.613 -147.339 152.75 -147.246 152.924C-147.059 153.27 -146.821 153.737 -146.533 154.322C-145.959 155.491 -145.2 157.105 -144.279 159.113C-142.437 163.127 -139.957 168.691 -137.023 175.371C-131.156 188.729 -123.485 206.531 -115.503 225.266C-99.5372 262.743 -82.3444 303.928 -75.8826 320.748L-62.7125 355.034L-62.4661 355.675H-61.779H-15.6644H30.4454H31.139L31.382 355.025L44.2071 320.74L43.2705 320.39L44.2072 320.74C56.4401 288.031 99.324 187.36 108.785 169.116C110.501 165.807 111.84 163.498 112.808 162.152C112.938 161.972 113.056 161.816 113.163 161.681M-752.775 270.469L113.163 161.681M9.79669 959.888L8.823 959.66C15.2213 932.314 21.518 907.608 26.5098 889.83C29.0048 880.944 31.1779 873.775 32.8773 868.868C33.7251 866.42 34.465 864.507 35.0766 863.218C35.3785 862.582 35.6727 862.047 35.9583 861.67C36.0977 861.486 36.2776 861.282 36.5026 861.13C36.7282 860.979 37.1407 860.792 37.6257 860.954M9.79669 959.888L37.6257 860.954M9.79669 959.888L8.82294 959.66C2.43066 986.993 -3.68439 1011.84 -8.38586 1029.84C-10.737 1038.85 -12.7325 1046.14 -14.2313 1051.17C-14.9816 1053.69 -15.6027 1055.62 -16.0784 1056.92C-16.1042 1056.99 -16.1295 1057.06 -16.1542 1057.13C-16.1786 1057.06 -16.2036 1057 -16.2291 1056.92C-16.7021 1055.62 -17.3193 1053.69 -18.0646 1051.17C-19.5533 1046.13 -21.5344 1038.85 -23.8679 1029.84C-28.5339 1011.83 -34.6005 986.985 -40.9407 959.652C-47.2824 932.302 -53.5569 907.599 -58.5579 889.832M9.79669 959.888L-58.5579 889.832M37.6257 860.954C37.8632 861.033 38.0576 861.17 38.196 861.282M37.6257 860.954L38.196 861.282M522.086 623.017L521.326 622.368C521.729 621.896 522.813 620.898 524.413 619.492C526.043 618.06 528.276 616.147 531.04 613.813C536.567 609.143 544.232 602.776 553.474 595.17C571.958 579.958 596.763 559.786 623.427 538.327L720.006 460.598L720.232 366.344L720.454 271.613L720.455 271.178L720.774 270.882L768.047 226.959C781.039 214.889 792.846 203.463 801.401 194.781C805.68 190.438 809.138 186.79 811.521 184.095C812.714 182.745 813.625 181.649 814.232 180.831C814.537 180.421 814.751 180.1 814.884 179.865C814.9 179.837 814.915 179.811 814.927 179.787C814.869 179.704 814.791 179.6 814.689 179.473C814.364 179.069 813.864 178.51 813.185 177.798C811.832 176.378 809.825 174.404 807.228 171.935C802.037 166.999 794.522 160.119 785.241 151.794C766.681 135.145 741.077 112.736 712.909 88.5862L610.755 1H494.626H378.611L300.817 101.105C200.437 230.273 120.824 338.019 75.8323 405.593C59.6543 429.893 47.4888 446.073 39.3367 454.066C37.2946 456.068 35.4732 457.588 33.8775 458.596C32.3087 459.587 30.8258 460.168 29.4985 460.079C28.0505 459.982 27.0141 459.111 26.3923 457.765C25.7985 456.48 25.5454 454.708 25.5454 452.546C25.5454 451.489 26.0164 449.886 26.7345 448.02C27.472 446.104 28.5312 443.76 29.8283 441.152C32.4236 435.932 35.9972 429.6 39.9252 423.405C45.6506 414.376 48.8871 408.422 50.2244 403.83C50.8867 401.556 51.0727 399.648 50.8757 397.887C50.6786 396.127 50.0923 394.457 49.1345 392.667M522.086 623.017L49.1345 392.667M522.086 623.017L521.325 622.369C520.001 623.923 520.166 626.15 521.239 628.798C522.333 631.498 524.514 635.006 527.879 639.514C534.621 648.546 546.307 661.833 564.207 681.099L611.674 732.195L566.614 875.118C554.174 914.571 542.766 950.48 534.405 976.551C530.225 989.587 526.808 1000.16 524.405 1007.49C523.203 1011.15 522.256 1014 521.595 1015.94C521.264 1016.91 521.007 1017.65 520.826 1018.14C520.772 1018.29 520.726 1018.41 520.688 1018.51C516.03 1020.58 466.41 1042.76 406.81 1069.41L293.985 1119.86L197.782 1055.03L101.351 990.052L71.9743 926.606C63.8577 909.077 55.998 892.978 49.8712 881.158M522.086 623.017L49.8712 881.158M49.1345 392.667C47.9946 390.538 47.6724 387.387 48.1542 382.681C48.6394 377.942 49.9614 371.456 52.2892 362.526C56.9465 344.659 65.6747 316.843 79.9684 273.322C95.9267 224.737 106.1 191.894 110.566 174.517C111.682 170.172 112.436 166.817 112.835 164.435C113.031 163.259 113.138 162.347 113.163 161.681M49.1345 392.667L113.163 161.681M-58.5579 889.832C-61.0575 880.952 -63.2432 873.788 -64.963 868.889M-58.5579 889.832L-64.963 868.889M-64.963 868.889C-65.8209 866.446 -66.5735 864.534 -67.2007 863.248M-64.963 868.889L-67.2007 863.248M-67.2007 863.248C-67.5101 862.614 -67.8142 862.078 -68.1124 861.701M-67.2007 863.248L-68.1124 861.701M-68.1124 861.701C-68.2585 861.517 -68.4467 861.314 -68.681 861.166M-68.1124 861.701L-68.681 861.166M-68.681 861.166C-68.9211 861.015 -69.3256 860.856 -69.7902 861.01L-68.681 861.166ZM49.8712 881.158C46.8088 875.25 44.1738 870.4 42.1531 866.973M49.8712 881.158L42.1531 866.973M42.1531 866.973C41.1442 865.261 40.2784 863.887 39.5827 862.909M42.1531 866.973L39.5827 862.909M39.5827 862.909C39.2361 862.421 38.9176 862.012 38.6337 861.702M39.5827 862.909L38.6337 861.702M38.6337 861.702C38.4917 861.547 38.345 861.403 38.196 861.282M38.6337 861.702L38.196 861.282M-847.014 179.566C-847.014 179.566 -847.013 179.568 -847.012 179.572C-847.014 179.568 -847.014 179.566 -847.014 179.566ZM521.049 1018.35L521.042 1018.35L521.049 1018.35Z" stroke="#7D7D7D" stroke-width="2"/>
</g>
<defs>
<filter id="filter0_d" x="-852" y="0" width="1672" height="1129" filterUnits="userSpaceOnUse" color-interpolation-filters="sRGB">
<feFlood flood-opacity="0" result="BackgroundImageFix"/>
<feColorMatrix in="SourceAlpha" type="matrix" values="0 0 0 0 0 0 0 0 0 0 0 0 0 0 0 0 0 0 127 0"/>
<feOffset dy="4"/>
<feGaussianBlur stdDeviation="2"/>
<feColorMatrix type="matrix" values="0 0 0 0 0 0 0 0 0 0 0 0 0 0 0 0 0 0 0.25 0"/>
<feBlend mode="normal" in2="BackgroundImageFix" result="effect1_dropShadow"/>
<feBlend mode="normal" in="SourceGraphic" in2="effect1_dropShadow" result="shape"/>
</filter>
</defs>
</svg>
